<svg id="visual" viewBox="0 0 1920 1080" width="1920" height="1080" xmlns="http://www.w3.org/2000/svg" xmlns:xlink="http://www.w3.org/1999/xlink" version="1.1"><rect x="0" y="0" width="1920" height="1080" fill="#000000"></rect><defs><linearGradient id="grad1_0" x1="43.8%" y1="100%" x2="100%" y2="0%"><stop offset="14.444444444444446%" stop-color="#f7770f" stop-opacity="1"></stop><stop offset="85.55555555555554%" stop-color="#f7770f" stop-opacity="1"></stop></linearGradient></defs><defs><linearGradient id="grad1_1" x1="43.8%" y1="100%" x2="100%" y2="0%"><stop offset="14.444444444444446%" stop-color="#f7770f" stop-opacity="1"></stop><stop offset="85.55555555555554%" stop-color="#922200" stop-opacity="1"></stop></linearGradient></defs><defs><linearGradient id="grad1_2" x1="43.8%" y1="100%" x2="100%" y2="0%"><stop offset="14.444444444444446%" stop-color="#000000" stop-opacity="1"></stop><stop offset="85.55555555555554%" stop-color="#922200" stop-opacity="1"></stop></linearGradient></defs><defs><linearGradient id="grad2_0" x1="0%" y1="100%" x2="56.3%" y2="0%"><stop offset="14.444444444444446%" stop-color="#f7770f" stop-opacity="1"></stop><stop offset="85.55555555555554%" stop-color="#f7770f" stop-opacity="1"></stop></linearGradient></defs><defs><linearGradient id="grad2_1" x1="0%" y1="100%" x2="56.3%" y2="0%"><stop offset="14.444444444444446%" stop-color="#922200" stop-opacity="1"></stop><stop offset="85.55555555555554%" stop-color="#f7770f" stop-opacity="1"></stop></linearGradient></defs><defs><linearGradient id="grad2_2" x1="0%" y1="100%" x2="56.3%" y2="0%"><stop offset="14.444444444444446%" stop-color="#922200" stop-opacity="1"></stop><stop offset="85.55555555555554%" stop-color="#000000" stop-opacity="1"></stop></linearGradient></defs><g transform="translate(1920, 1080)"><path d="M-810 0C-765.1 -54.3 -720.2 -108.7 -684.4 -156.2C-648.6 -203.8 -621.9 -244.6 -603.6 -290.7C-585.4 -336.8 -575.5 -388.3 -564.5 -450.2C-553.4 -512 -541.2 -584.1 -505 -633.3C-468.8 -682.4 -408.7 -708.6 -349.7 -726.2C-290.7 -743.8 -232.8 -752.8 -174.7 -765.3C-116.6 -777.9 -58.3 -793.9 0 -810L0 0Z" fill="#660000"></path><path d="M-540 0C-510.1 -36.2 -480.1 -72.4 -456.3 -104.1C-432.4 -135.8 -414.6 -163 -402.4 -193.8C-390.3 -224.6 -383.7 -258.9 -376.3 -300.1C-369 -341.3 -360.8 -389.4 -336.7 -422.2C-312.6 -455 -272.5 -472.4 -233.1 -484.1C-193.8 -495.8 -155.2 -501.9 -116.5 -510.2C-77.7 -518.6 -38.9 -529.3 0 -540L0 0Z" fill="#c34d00"></path><path d="M-270 0C-255 -18.1 -240.1 -36.2 -228.1 -52.1C-216.2 -67.9 -207.3 -81.5 -201.2 -96.9C-195.1 -112.3 -191.8 -129.4 -188.2 -150.1C-184.5 -170.7 -180.4 -194.7 -168.3 -211.1C-156.3 -227.5 -136.2 -236.2 -116.6 -242.1C-96.9 -247.9 -77.6 -250.9 -58.2 -255.1C-38.9 -259.3 -19.4 -264.6 0 -270L0 0Z" fill="#f7770f"></path></g><g transform="translate(0, 0)"><path d="M810 0C714.8 43.2 619.6 86.4 592.8 135.3C565.9 184.2 607.5 238.8 629.8 303.3C652 367.8 655 442.1 633.3 505C611.6 567.9 565.3 619.3 501.3 628.6C437.3 637.9 355.5 605.1 300.7 624.4C245.8 643.6 217.9 715 172.2 754.6C126.6 794.2 63.3 802.1 0 810L0 0Z" fill="#660000"></path><path d="M540 0C476.5 28.8 413 57.6 395.2 90.2C377.3 122.8 405 159.2 419.9 202.2C434.7 245.2 436.6 294.8 422.2 336.7C407.7 378.6 376.9 412.9 334.2 419.1C291.5 425.3 237 403.4 200.5 416.2C163.9 429.1 145.2 476.7 114.8 503.1C84.4 529.5 42.2 534.7 0 540L0 0Z" fill="#c34d00"></path><path d="M270 0C238.3 14.4 206.5 28.8 197.6 45.1C188.6 61.4 202.5 79.6 209.9 101.1C217.3 122.6 218.3 147.4 211.1 168.3C203.9 189.3 188.4 206.4 167.1 209.5C145.8 212.6 118.5 201.7 100.2 208.1C81.9 214.5 72.6 238.3 57.4 251.5C42.2 264.7 21.1 267.4 0 270L0 0Z" fill="#f7770f"></path></g></svg>