<svg id="visual" viewBox="0 0 1920 1080" width="1920" height="1080" xmlns="http://www.w3.org/2000/svg" xmlns:xlink="http://www.w3.org/1999/xlink" version="1.1"><rect x="0" y="0" width="1920" height="1080" fill="#000000"></rect><path d="M0 246L53.3 233.2C106.7 220.3 213.3 194.7 320 183.2C426.7 171.7 533.3 174.3 640 189.3C746.7 204.3 853.3 231.7 960 243.7C1066.7 255.7 1173.3 252.3 1280 243.8C1386.7 235.3 1493.3 221.7 1600 217.8C1706.7 214 1813.3 220 1866.7 223L1920 226L1920 0L1866.7 0C1813.3 0 1706.7 0 1600 0C1493.3 0 1386.7 0 1280 0C1173.3 0 1066.7 0 960 0C853.3 0 746.7 0 640 0C533.3 0 426.7 0 320 0C213.3 0 106.7 0 53.3 0L0 0Z" fill="#ccff66"></path><path d="M0 194L53.3 182.3C106.7 170.7 213.3 147.3 320 144.5C426.7 141.7 533.3 159.3 640 161.2C746.7 163 853.3 149 960 150.2C1066.7 151.3 1173.3 167.7 1280 174C1386.7 180.3 1493.3 176.7 1600 179.3C1706.7 182 1813.3 191 1866.7 195.5L1920 200L1920 0L1866.7 0C1813.3 0 1706.7 0 1600 0C1493.3 0 1386.7 0 1280 0C1173.3 0 1066.7 0 960 0C853.3 0 746.7 0 640 0C533.3 0 426.7 0 320 0C213.3 0 106.7 0 53.3 0L0 0Z" fill="#87ff9f"></path><path d="M0 97L53.3 101C106.7 105 213.3 113 320 114.2C426.7 115.3 533.3 109.7 640 114.2C746.7 118.7 853.3 133.3 960 137.8C1066.7 142.3 1173.3 136.7 1280 129.2C1386.7 121.7 1493.3 112.3 1600 111.3C1706.7 110.3 1813.3 117.7 1866.7 121.3L1920 125L1920 0L1866.7 0C1813.3 0 1706.7 0 1600 0C1493.3 0 1386.7 0 1280 0C1173.3 0 1066.7 0 960 0C853.3 0 746.7 0 640 0C533.3 0 426.7 0 320 0C213.3 0 106.7 0 53.3 0L0 0Z" fill="#45ffd3"></path><path d="M0 43L53.3 44.8C106.7 46.7 213.3 50.3 320 53.7C426.7 57 533.3 60 640 62.8C746.7 65.7 853.3 68.3 960 74.5C1066.7 80.7 1173.3 90.3 1280 88.5C1386.7 86.7 1493.3 73.3 1600 72.5C1706.7 71.7 1813.3 83.3 1866.7 89.2L1920 95L1920 0L1866.7 0C1813.3 0 1706.7 0 1600 0C1493.3 0 1386.7 0 1280 0C1173.3 0 1066.7 0 960 0C853.3 0 746.7 0 640 0C533.3 0 426.7 0 320 0C213.3 0 106.7 0 53.3 0L0 0Z" fill="#00ffff"></path></svg>