<svg id="visual" viewBox="0 0 2560 1440" width="2560" height="1440" xmlns="http://www.w3.org/2000/svg" xmlns:xlink="http://www.w3.org/1999/xlink" version="1.1"><rect x="0" y="0" width="2560" height="1440" fill="#000000"></rect><path d="M0 881L61 883.3C122 885.7 244 890.3 365.8 921.5C487.7 952.7 609.3 1010.3 731.2 1005.5C853 1000.7 975 933.3 1097 922.2C1219 911 1341 956 1463 980.7C1585 1005.3 1707 1009.7 1828.8 1003.5C1950.7 997.3 2072.3 980.7 2194.2 955.2C2316 929.7 2438 895.3 2499 878.2L2560 861L2560 1441L2499 1441C2438 1441 2316 1441 2194.2 1441C2072.3 1441 1950.7 1441 1828.8 1441C1707 1441 1585 1441 1463 1441C1341 1441 1219 1441 1097 1441C975 1441 853 1441 731.2 1441C609.3 1441 487.7 1441 365.8 1441C244 1441 122 1441 61 1441L0 1441Z" fill="#bb5e29"></path><path d="M0 1041L61 1049.5C122 1058 244 1075 365.8 1068.3C487.7 1061.7 609.3 1031.3 731.2 1041C853 1050.7 975 1100.3 1097 1120.5C1219 1140.7 1341 1131.3 1463 1131C1585 1130.7 1707 1139.3 1828.8 1143.8C1950.7 1148.3 2072.3 1148.7 2194.2 1138.5C2316 1128.3 2438 1107.7 2499 1097.3L2560 1087L2560 1441L2499 1441C2438 1441 2316 1441 2194.2 1441C2072.3 1441 1950.7 1441 1828.8 1441C1707 1441 1585 1441 1463 1441C1341 1441 1219 1441 1097 1441C975 1441 853 1441 731.2 1441C609.3 1441 487.7 1441 365.8 1441C244 1441 122 1441 61 1441L0 1441Z" fill="#c7551e"></path><path d="M0 1078L61 1084.2C122 1090.3 244 1102.7 365.8 1106.3C487.7 1110 609.3 1105 731.2 1102.3C853 1099.7 975 1099.3 1097 1100.8C1219 1102.3 1341 1105.7 1463 1108.8C1585 1112 1707 1115 1828.8 1125.3C1950.7 1135.7 2072.3 1153.3 2194.2 1158.3C2316 1163.3 2438 1155.7 2499 1151.8L2560 1148L2560 1441L2499 1441C2438 1441 2316 1441 2194.2 1441C2072.3 1441 1950.7 1441 1828.8 1441C1707 1441 1585 1441 1463 1441C1341 1441 1219 1441 1097 1441C975 1441 853 1441 731.2 1441C609.3 1441 487.7 1441 365.8 1441C244 1441 122 1441 61 1441L0 1441Z" fill="#d34814"></path><path d="M0 1256L61 1253.3C122 1250.7 244 1245.3 365.8 1243.7C487.7 1242 609.3 1244 731.2 1239.8C853 1235.7 975 1225.3 1097 1221.3C1219 1217.3 1341 1219.7 1463 1228.8C1585 1238 1707 1254 1828.8 1253.2C1950.7 1252.3 2072.3 1234.7 2194.2 1236C2316 1237.3 2438 1257.7 2499 1267.8L2560 1278L2560 1441L2499 1441C2438 1441 2316 1441 2194.2 1441C2072.3 1441 1950.7 1441 1828.8 1441C1707 1441 1585 1441 1463 1441C1341 1441 1219 1441 1097 1441C975 1441 853 1441 731.2 1441C609.3 1441 487.7 1441 365.8 1441C244 1441 122 1441 61 1441L0 1441Z" fill="#df370b"></path><path d="M0 1304L61 1315.8C122 1327.7 244 1351.3 365.8 1344.5C487.7 1337.7 609.3 1300.3 731.2 1292C853 1283.7 975 1304.3 1097 1314.2C1219 1324 1341 1323 1463 1331.7C1585 1340.3 1707 1358.7 1828.8 1351C1950.7 1343.3 2072.3 1309.7 2194.2 1304.5C2316 1299.3 2438 1322.7 2499 1334.3L2560 1346L2560 1441L2499 1441C2438 1441 2316 1441 2194.2 1441C2072.3 1441 1950.7 1441 1828.8 1441C1707 1441 1585 1441 1463 1441C1341 1441 1219 1441 1097 1441C975 1441 853 1441 731.2 1441C609.3 1441 487.7 1441 365.8 1441C244 1441 122 1441 61 1441L0 1441Z" fill="#ec1506"></path></svg>